<svg id="logo_loop" data-name="logo loop" xmlns="http://www.w3.org/2000/svg" xmlns:xlink="http://www.w3.org/1999/xlink" viewBox="0 0 1126.64 382.44">
  <defs>
    <style>
      .cls-1 {
        font-size: 293.43px;
        fill: #ccc;
        font-family: Bauhaus93, "Bauhaus 93";
      }

      .cls-2 {
        fill: url(#Degradado_sin_nombre_21);
      }

      .cls-3 {
        fill: #b3b3b3;
      }
    </style>
    <linearGradient id="Degradado_sin_nombre_21" data-name="Degradado sin nombre 21" x1="50.78" y1="275.67" x2="378.58" y2="78.56" gradientUnits="userSpaceOnUse">
      <stop offset="0" stop-color="#ccc"/>
      <stop offset="0.38" stop-color="#d7d7d7"/>
      <stop offset="1" stop-color="#f2f2f2"/>
    </linearGradient>
  </defs>
  <title>logoloopcompleto</title>
  <text id="letras" class="cls-1" transform="translate(421.15 276.83)">LOOP</text>
  <g id="Circulo">
    <g id="circulo-2" data-name="circulo">
      <circle class="cls-2" cx="191.22" cy="191.22" r="191.22"/>
    </g>
    <path id="mando" class="cls-3" d="M363.11,363.7a9.39,9.39,0,1,1-12-5.63A9.4,9.4,0,0,1,363.11,363.7Zm-53,19.21a9.39,9.39,0,1,0,12,5.63A9.4,9.4,0,0,0,310.13,382.91ZM197,374l-17.66,6.4L185.72,398l-17.66,6.41,6.4,17.66,17.66-6.4,6.41,17.66L216.19,427l-6.41-17.66,17.67-6.4L221,385.24l-17.66,6.4Zm97.15-35.23a9.4,9.4,0,1,0,12,5.63A9.41,9.41,0,0,0,294.12,338.75Zm40.95-24.84a9.39,9.39,0,1,0,12,5.63A9.42,9.42,0,0,0,335.07,313.91ZM425.7,371a65.72,65.72,0,0,1-108,69.14l-47.36,17.17a65.68,65.68,0,0,1-130.65,1.51l-10.85-88.58a56,56,0,0,1,82.59-51.44L274.14,296a56,56,0,0,1,96.37-13.45l48.42,74.91A65.22,65.22,0,0,1,425.7,371ZM229.87,382a9.39,9.39,0,0,0-12-5.62l-8.83,3.2-3.2-8.83a9.4,9.4,0,0,0-12-5.63l-17.66,6.4a9.4,9.4,0,0,0-5.63,12l3.2,8.84-8.83,3.2a9.41,9.41,0,0,0-5.63,12l6.41,17.66a9.39,9.39,0,0,0,12,5.63l8.83-3.2,3.21,8.83a9.38,9.38,0,0,0,12,5.63l17.66-6.4a9.41,9.41,0,0,0,5.63-12l-3.2-8.83,8.83-3.2a9.41,9.41,0,0,0,5.63-12ZM331,385.34a18.78,18.78,0,1,0-11.26,24.06A18.78,18.78,0,0,0,331,385.34Zm-16-44.16a18.79,18.79,0,1,0-11.26,24.07A18.79,18.79,0,0,0,315,341.18Zm57,19.31a18.79,18.79,0,1,0-11.25,24.07A18.77,18.77,0,0,0,371.94,360.49Zm-16-44.15a18.79,18.79,0,1,0-11.25,24.07A18.78,18.78,0,0,0,355.93,316.34Z" transform="translate(-88 -197.56)"/>
  </g>
</svg>
